<?xml version="1.0" standalone="no"?>
<!DOCTYPE svg PUBLIC "-//W3C//DTD SVG 1.1//EN" "http://www.w3.org/Graphics/SVG/1.1/DTD/svg11.dtd" >
<svg xmlns="http://www.w3.org/2000/svg">
<metadata>Generated by IcoMoon</metadata>
<defs>
<font id="icomoon" horiz-adv-x="1024">
<font-face units-per-em="1024" ascent="960" descent="-64" />
<missing-glyph horiz-adv-x="1024" />
<glyph unicode="&#x20;" horiz-adv-x="512" d="" />
<glyph unicode="&#xe900;" glyph-name="svg-icon-1" d="M285.082 909.888c-70.042 0-140.083-23.347-193.434-80.077-106.701-113.459-103.424-283.546 0-396.902l420.25-457.011 420.25 457.011c103.424 113.459 106.701 283.546 0 396.902-106.701 106.701-280.166 106.701-386.97 0l-33.382-36.659-33.382 36.659c-53.248 56.73-123.29 80.077-193.331 80.077v0z" />
<glyph unicode="&#xe901;" glyph-name="svg-icon-2" d="M521.421 928.217c-196.301 0-353.382-154.419-353.382-342.938 0-191.078 363.827-623.002 363.827-623.002s342.938 431.923 342.938 623.002c0 188.518-156.979 342.938-353.382 342.938zM521.421 860.121c154.419 0 282.726-123.085 282.726-274.842s-125.645-274.842-282.726-274.842c-154.419 0-282.726 123.085-282.726 274.842 0 151.859 128.307 274.842 282.726 274.842zM518.861 645.491c-2.662 0-5.222-2.662-5.222-5.222v-238.182c0-7.885 10.445-7.885 10.445 0v238.182c0 2.56-2.662 5.222-5.222 5.222zM455.987 538.176h2.662c0 0 7.885-5.222 18.33-15.667 10.445-7.885 20.992-18.33 26.214-31.437 2.662-7.885 2.662-18.33 2.662-28.774s-2.662-15.667-2.662-15.667c0-2.662-5.222-5.222-7.885-2.662 0 0-7.885 5.222-18.33 15.667-10.445 7.885-20.992 18.33-26.214 28.774-2.662 7.885-2.662 18.33-2.662 28.774s2.662 15.667 2.662 15.667c0 2.662 2.662 5.325 5.222 5.325v0zM455.987 621.939h2.662c0 0 7.885-5.222 18.33-15.667 10.445-7.885 20.992-18.33 26.214-28.774 2.662-7.885 2.662-18.33 2.662-28.774s-2.662-15.667-2.662-15.667c0-2.662-5.222-5.222-7.885-2.662 0 0-7.885 5.222-18.33 15.667-10.445 7.885-20.992 18.33-26.214 28.774-2.662 7.885-2.662 18.33-2.662 28.774s2.662 15.667 2.662 15.667c0 2.662 2.662 2.662 5.222 2.662v0zM455.987 705.702h2.662c0 0 7.885-5.222 18.33-15.667 10.445-7.885 20.992-18.33 26.214-28.774 2.662-7.885 2.662-18.33 2.662-28.774s-2.662-15.667-2.662-15.667c0-2.662-5.222-5.222-7.885-2.662 0 0-7.885 5.222-18.33 15.667-10.445 7.885-20.992 18.33-26.214 28.774-2.662 7.885-2.662 18.33-2.662 28.774s2.662 15.667 2.662 15.667c0 2.662 2.662 2.662 5.222 2.662v0zM524.083 771.136c-2.662 0-2.662 0-2.662-2.662 0 0-5.222-5.222-10.445-13.107s-10.445-15.667-13.107-26.214c-2.662-13.107 2.662-26.214 7.885-39.219 5.222-13.107 10.445-20.992 10.445-20.992 2.662-2.662 5.222-5.222 7.885 0 0 0 5.222 5.222 10.445 13.107s10.445 15.667 13.107 26.214c2.662 13.107-2.662 26.214-7.885 39.219-5.222 13.107-10.445 20.992-10.445 20.992 0 2.662-2.662 2.662-5.222 2.662zM586.854 705.702h-2.662c0 0-7.885-5.222-18.33-15.667-10.445-7.885-20.992-18.33-26.214-28.774-2.662-7.885-2.662-18.33-2.662-28.774s2.662-15.667 2.662-15.667c0-2.662 5.222-5.222 7.885-2.662 0 0 7.885 5.222 18.33 15.667 10.445 7.885 20.992 18.33 26.214 31.437 2.662 7.885 2.662 18.33 2.662 28.774s-2.662 15.667-2.662 15.667c0 0-2.56 0-5.222 0v0zM586.854 538.176h-2.662c0 0-7.885-5.222-18.33-15.667-10.445-7.885-20.992-18.33-26.214-31.437-2.662-7.885-2.662-18.33-2.662-28.774s2.662-15.667 2.662-15.667c0-2.662 5.222-5.222 7.885-2.662 0 0 7.885 5.222 18.33 15.667 10.445 7.885 20.992 18.33 26.214 28.774 2.662 7.885 2.662 18.33 2.662 28.774s-2.662 15.667-2.662 15.667c0 2.662-2.56 5.325-5.222 5.325v0zM586.854 621.939h-2.662c0 0-7.885-5.222-18.33-15.667-10.445-7.885-20.992-18.33-26.214-28.774-2.662-7.885-2.662-18.33-2.662-28.774s2.662-15.667 2.662-15.667c0-2.662 5.222-5.222 7.885-2.662 0 0 7.885 5.222 18.33 15.667 10.445 7.885 20.992 18.33 26.214 28.774 2.662 7.885 2.662 18.33 2.662 28.774s-2.662 15.667-2.662 15.667c0 2.662-2.56 2.662-5.222 2.662v0z" />
<glyph unicode="&#xe902;" glyph-name="svg-icon-3" d="M904.090 461.926h-312.013v-49.254h312.013v49.254zM542.822 767.283h-302.182v-49.254h302.080v49.254h0.102zM904.090 258.355h-312.013v-49.254h312.013v49.254zM904.090 360.141h-312.013v-49.254h312.013v49.254zM848.179 44.851h-774.963v666.624h16.384v59.085h-72.192v-778.24h886.682v75.571h-55.808v-23.040h-0.102zM897.434 767.283h-305.357v-249.549h305.357v249.549zM542.822 258.355h-302.182v-49.254h302.080v49.254h0.102zM132.301 879.002v-778.24h873.574v778.24h-873.574zM949.965 156.467h-765.133v670.003h765.133v-670.003zM542.822 360.141h-302.182v-49.254h302.080v49.254h0.102zM542.822 665.498h-302.182v-49.254h302.080v49.254h0.102zM542.822 461.926h-302.182v-49.254h302.080v49.254h0.102zM542.822 563.712h-302.182v-49.254h302.080v49.254h0.102z" />
<glyph unicode="&#xe903;" glyph-name="svg-icon-4" d="M449.536 702.874h-384c-22.733 0-42.291-19.558-42.291-42.291v-354.714c0-22.733 19.558-42.291 42.291-42.291h133.427v-263.578c0-22.733 19.558-42.291 42.291-42.291s42.291 19.558 42.291 42.291v263.475h172.442l-6.451 439.398zM979.866 930.611c-13.005 9.728-26.010 9.728-39.014 3.277l-410.010-211.558v-481.587l410.010-208.282c6.554-3.277 13.005-3.277 19.558-3.277 9.728 0 13.005 3.277 19.558 6.554 13.005 9.728 19.558 19.558 19.558 35.84v826.47c-0.102 13.005-9.83 26.010-19.661 32.563z" />
<glyph unicode="&#xe904;" glyph-name="svg-icon-5" d="M1005.158 159.13c0-14.029-3.482-28.058-6.963-49.050s-10.547-35.021-14.029-49.050c-10.547-24.576-38.502-49.050-84.070-73.626-42.086-24.576-87.552-35.021-129.638-35.021-14.029 0-24.576 0-35.021 3.482-10.547 0-24.576 3.482-38.502 6.963-14.029 3.482-24.576 6.963-31.539 10.547-6.963 3.482-20.992 6.963-38.502 14.029-17.51 6.963-31.539 10.547-35.021 14.029-45.568 17.51-87.552 35.021-122.675 59.597-59.597 35.021-119.091 87.552-185.651 150.63-63.078 63.078-112.128 126.157-150.63 185.651-20.992 35.021-42.086 77.107-59.597 122.675 0 3.482-6.963 14.029-14.029 35.021-6.963 17.51-10.547 31.539-14.029 38.502-3.482 0-6.963 10.547-10.547 28.058-3.482 14.029-6.963 28.058-6.963 38.502-3.482 14.029-3.482 24.576-3.482 38.502 0 42.086 10.547 84.070 35.021 129.638s49.050 77.107 73.626 84.070c10.547 3.482 28.058 10.547 49.050 14.029s35.021 6.963 49.050 6.963c6.963 0 10.547 0 14.029-3.482 6.963-3.482 20.992-20.992 38.502-52.531 3.482-6.963 10.547-20.992 20.992-35.021 10.547-17.51 17.51-31.539 24.576-45.568 6.963-14.029 14.029-24.576 20.992-38.502 0-3.482 6.963-6.963 10.547-17.51 6.963-6.963 14.029-17.51 14.029-24.576 3.482-6.963 3.482-14.029 3.482-20.992 0-10.547-6.963-20.992-20.992-35.021-10.547-10.547-24.576-24.576-38.502-35.021-17.51-14.029-31.539-24.576-45.568-38.502-14.029-14.029-20.992-24.576-20.992-31.539 0-3.482 0-10.547 3.482-14.029 3.482-6.963 3.482-10.547 6.963-14.029 0-3.482 3.482-10.547 10.547-17.51 3.482-6.963 6.963-14.029 6.963-14.029 35.021-63.078 77.107-119.091 122.675-164.659s101.581-87.552 164.659-122.675c0 0 6.963-3.482 14.029-6.963 6.963-3.482 14.029-6.963 17.51-10.547 3.482 0 6.963-3.482 14.029-6.963 6.963-3.482 10.547-3.482 14.029-3.482 6.963 0 17.51 6.963 31.539 20.992s24.576 28.058 38.502 42.086c10.547 14.029 24.576 31.539 38.502 42.086 14.029 14.029 24.576 20.992 35.021 20.992 6.963 0 14.029 0 20.992-3.482s14.029-6.963 24.576-14.029c10.547-6.963 14.029-10.547 17.51-10.547 10.547-6.963 24.576-14.029 38.502-20.992 14.029-6.963 28.058-14.029 45.568-24.576s28.058-14.029 38.502-20.992c31.539-17.51 49.050-28.058 52.531-38.502-3.584-3.584-3.584-7.066-3.584-14.029z" />
<glyph unicode="&#xe905;" glyph-name="svg-icon-6" d="M894.771 579.482h-80.691v64.614c0.102 161.28-138.65 290.304-303.206 290.304-171.008 0-306.483-132.301-306.483-293.581v-61.338h-64.512c-12.902 0-25.805-12.902-25.805-25.805v-561.459c0-12.902 12.902-25.805 25.805-25.805h751.821c16.179 0 25.805 12.902 25.805 25.805v561.459c3.072 12.902-9.83 25.805-22.733 25.805zM281.805 640.819v0c0 122.573 103.219 219.341 225.792 219.341 125.85 0 225.894-100.045 225.894-219.443v-61.338h-451.686v61.44zM565.658 269.722l32.256-187.187h-138.65l32.256 187.187c0 9.728-3.277 19.354-9.728 25.805-16.179 12.902-29.082 35.533-29.082 54.886 0 38.707 32.256 70.963 74.24 70.963s74.24-32.256 74.24-70.963c0-22.63-9.728-41.984-29.082-54.886-6.451-6.451-9.626-16.077-6.451-25.805z" />
<glyph unicode="&#xe906;" glyph-name="svg-icon-7" d="M206.541 931.533v-121.549h32.461v89.088h591.36v-907.366h-591.36v72.909h-32.461v-105.37h656.282v972.288zM449.638 331.981l24.269-24.371 137.728 137.728-137.728 137.728-24.269-24.269 97.178-97.178h-364.544v-32.461h364.544z" />
<glyph unicode="&#xe907;" glyph-name="svg-icon-8" d="M987.648-34.611h-257.024v89.907h-89.907v109.363l-12.8 12.8h-109.363v109.261l-67.482 64.205c-38.502-16.077-80.282-25.702-125.338-25.702v0c-80.282 0-157.389 32.154-212.070 89.907-118.784 118.989-118.784 308.531 0.102 427.418 54.579 54.579 131.686 86.733 211.968 86.733s157.389-32.154 212.070-89.907c89.907-89.907 112.435-224.87 61.030-337.306l385.536-385.536v-151.040h3.277zM775.578 10.445h167.014v86.733l-398.336 398.336 6.451 16.077c51.405 99.635 32.154 218.419-44.954 298.803-48.23 48.23-112.538 73.933-180.019 73.933s-131.686-25.702-179.917-73.933c-99.635-99.635-99.635-263.475 0-363.008 48.23-48.23 112.435-73.933 179.917-73.933 41.779 0 83.558 9.626 118.886 28.877l16.077 6.451 102.81-102.81v-83.558h80.282l41.779-41.779v-80.282h89.907v-89.907zM274.33 566.17c-28.877 0-57.856 12.8-77.107 32.154-44.954 44.954-44.954 115.61 0 157.389 41.779 41.779 115.61 41.779 157.389 0 22.528-22.528 32.154-48.23 32.154-77.107s-12.8-57.856-32.154-77.107c-22.426-22.426-48.128-35.328-80.282-35.328zM274.33 742.912c-16.077 0-32.154-6.451-44.954-19.251-25.702-25.702-25.702-67.482 0-93.184s67.482-25.702 93.184 0c12.8 12.8 19.251 28.877 19.251 44.954s-6.451 35.328-19.251 44.954c-12.8 16.077-28.877 22.528-48.23 22.528z" />
<glyph unicode="&#xe908;" glyph-name="svg-icon-9" d="M620.442 675.635c0 57.344-43.52 103.219-94.003 103.219-52.736 0-94.003-45.875-94.003-103.219s43.52-103.219 94.003-103.219c50.483 0 94.003 45.875 94.003 103.219zM469.094 675.635c0 34.406 25.19 61.952 57.344 61.952s57.344-27.546 57.344-61.952-25.19-61.952-57.344-61.952-57.344 27.546-57.344 61.952zM524.186 123.085c6.861 0 11.469 2.253 16.077 9.216 9.216 13.722 229.274 357.683 229.274 554.803 0 139.776-110.080 254.464-245.35 254.464-133.018 0-245.35-114.688-245.35-254.464 0-199.475 220.058-541.082 229.274-554.803 4.608-6.963 11.469-9.216 16.077-9.216zM524.186 900.301c114.688 0 208.589-96.256 208.589-213.197 0-155.955-155.955-426.496-208.589-506.675-50.483 82.534-208.589 350.822-208.589 506.675 2.253 119.194 96.256 213.197 208.589 213.197zM698.368 244.531c-9.216 4.608-20.685 0-25.19-11.469-4.608-9.216 0-22.938 11.469-27.546 52.736-22.938 84.787-57.344 84.787-87.142 0-71.066-128.41-119.194-245.35-119.194s-245.35 48.128-245.35 116.941c0 32.051 32.051 66.458 84.787 87.142 9.216 4.608 13.722 16.077 11.469 27.546-4.608 9.216-16.077 16.077-25.19 11.469-68.813-27.546-107.725-75.674-107.725-126.054 0-89.395 123.802-158.208 282.010-158.208s282.112 68.71 282.112 158.208c2.253 52.736-36.659 98.509-107.827 128.307z" />
<glyph unicode="&#xe909;" glyph-name="svg-icon-10" d="M596.275 41.165c-12.698-31.744-44.442-53.965-79.36-53.965s-66.662 22.221-79.36 53.965h158.72zM634.368 72.909h-234.906c0-66.662 53.965-117.453 117.453-117.453 66.662 0 117.453 53.965 117.453 117.453v0zM516.915 910.848c19.046 0 34.918-15.872 34.918-34.918 0-3.174 0-9.523-3.174-12.698l-12.698-34.918 34.918-9.523c114.278-25.395 196.813-126.976 196.813-247.603v-130.15c0-114.278 60.314-219.034 158.72-276.173v-15.872h-822.17v12.698c98.406 57.139 158.72 161.894 158.72 276.173v130.15c0 120.627 79.36 222.208 196.813 247.603l34.918 9.523-9.523 38.093c0 3.174-3.174 9.523-3.174 12.698 0 19.046 15.872 34.918 34.918 34.918zM516.915 942.592c-38.093 0-66.662-31.744-66.662-69.837 0-9.523 0-15.872 3.174-22.221-126.976-28.57-222.208-142.848-222.208-279.347v-130.15c0-114.278-63.488-209.51-158.72-257.126v-66.662h888.73v66.662c-95.232 47.616-158.72 146.022-158.72 257.126v130.15c0 136.499-95.232 250.778-222.208 279.347 3.174 6.349 3.174 15.872 3.174 22.221 0.102 38.093-28.467 69.837-66.56 69.837v0z" />
<glyph unicode="&#xe90a;" glyph-name="svg-icon-11" d="M140.902 915.866h422.605c0 0 82.842-124.314 93.901-138.138s-2.765-13.824-11.059-13.824c-11.059 0-566.17 0-591.053 0-27.648 0-19.354 8.294-13.824 16.589 5.53 8.397 99.43 135.373 99.43 135.373zM649.114 728.064h-604.877c-8.294 0-16.589-8.294-16.589-16.589v-138.138c0-8.294 8.294-16.589 16.589-16.589h604.877c8.294 0 16.589 8.294 16.589 16.589v138.138c-0.102 8.294-5.632 16.589-16.589 16.589zM129.843 603.853c0-5.53-2.765-8.294-8.294-8.294h-19.354c-5.53 0-8.294 2.765-8.294 8.294v74.547c0 5.53 2.765 8.294 8.294 8.294h19.354c5.53 0 8.294-2.765 8.294-8.294v-74.547zM198.861 603.853c0-5.53-2.765-8.294-8.294-8.294h-19.354c-5.53 0-8.294 2.765-8.294 8.294v74.547c0 5.53 2.765 8.294 8.294 8.294h19.354c5.53 0 8.294-2.765 8.294-8.294v-74.547zM267.981 603.853c0-5.53-2.765-8.294-8.294-8.294h-19.354c-5.53 0-8.294 2.765-8.294 8.294v74.547c0 5.53 2.765 8.294 8.294 8.294h19.354c5.53 0 8.294-2.765 8.294-8.294v-74.547zM339.763 603.853c0-5.53-2.765-8.294-8.294-8.294h-19.354c-5.53 0-8.294 2.765-8.294 8.294v74.547c0 5.53 2.765 8.294 8.294 8.294h19.354c5.53 0 8.294-2.765 8.294-8.294v-74.547zM408.781 603.853c0-5.53-5.53-8.294-8.294-8.294h-19.354c-5.53 0-8.294 2.765-8.294 8.294v74.547c0 5.53 2.765 8.294 8.294 8.294h19.354c5.53 0 8.294-2.765 8.294-8.294v-74.547zM599.347 614.81c-8.294 0-13.824 5.53-13.824 13.824s5.53 13.824 13.824 13.824c8.294 0 13.824-5.53 13.824-13.824-2.765-8.294-8.294-13.824-13.824-13.824zM599.347 647.987c-13.824 0-24.883 11.059-24.883 24.883s11.059 27.648 24.883 27.648c13.824 0 24.883-11.059 24.883-27.648 0-13.824-11.059-24.883-24.883-24.883zM649.114 518.144h-604.877c-8.294 0-16.589-5.53-16.589-16.589v-138.138c0-8.294 8.294-16.589 16.589-16.589h494.387c13.824 22.118 30.413 44.237 49.664 60.723-2.765 2.765-5.53 5.53-5.53 11.059 0 8.294 5.53 13.824 13.824 13.824 5.53 0 8.294-2.765 11.059-8.294 16.589 13.824 35.942 24.883 55.194 33.178v44.237c2.765 11.162-2.765 16.589-13.722 16.589zM129.843 396.698c0-5.53-2.765-8.294-8.294-8.294h-19.354c-5.53 0-8.294 2.765-8.294 8.294v74.547c0 5.53 2.765 8.294 8.294 8.294h19.354c5.53 0 8.294-2.765 8.294-8.294v-74.547zM198.861 396.698c0-5.53-2.765-8.294-8.294-8.294h-19.354c-5.53 0-8.294 2.765-8.294 8.294v74.547c0 5.53 2.765 8.294 8.294 8.294h19.354c5.53 0 8.294-2.765 8.294-8.294v-74.547zM267.981 396.698c0-5.53-2.765-8.294-8.294-8.294h-19.354c-5.53 0-8.294 2.765-8.294 8.294v74.547c0 5.53 2.765 8.294 8.294 8.294h19.354c5.53 0 8.294-2.765 8.294-8.294v-74.547zM339.763 396.698c0-5.53-2.765-8.294-8.294-8.294h-19.354c-5.53 0-8.294 2.765-8.294 8.294v74.547c0 5.53 2.765 8.294 8.294 8.294h19.354c5.53 0 8.294-2.765 8.294-8.294v-74.547zM408.781 396.698c0-5.53-5.53-8.294-8.294-8.294h-19.354c-5.53 0-8.294 2.765-8.294 8.294v74.547c0 5.53 2.765 8.294 8.294 8.294h19.354c5.53 0 8.294-2.765 8.294-8.294v-74.547zM599.347 440.832c-13.824 0-24.883 11.059-24.883 24.883s11.059 27.648 24.883 27.648c13.824 0 24.883-11.059 24.883-27.648 0-13.824-11.059-24.883-24.883-24.883zM522.035 311.091h-477.798c-8.294 0-16.589-8.294-16.589-16.589v-138.138c0-8.294 8.294-16.589 16.589-16.589h466.739c-5.53 22.118-8.294 47.002-8.294 71.782 0 33.178 5.53 69.12 19.354 99.533zM129.843 186.778c0-5.53-2.765-8.294-8.294-8.294h-19.354c-5.53 0-8.294 2.765-8.294 8.294v74.547c0 5.53 2.765 8.294 8.294 8.294h19.354c5.53 0 8.294-2.765 8.294-8.294v-74.547zM198.861 186.778c0-5.53-2.765-8.294-8.294-8.294h-19.354c-5.53 0-8.294 2.765-8.294 8.294v74.547c0 5.53 2.765 8.294 8.294 8.294h19.354c5.53 0 8.294-2.765 8.294-8.294v-74.547zM267.981 186.778c0-5.53-2.765-8.294-8.294-8.294h-19.354c-5.53 0-8.294 2.765-8.294 8.294v74.547c0 5.53 2.765 8.294 8.294 8.294h19.354c5.53 0 8.294-2.765 8.294-8.294v-74.547zM339.763 186.778c0-5.53-2.765-8.294-8.294-8.294h-19.354c-5.53 0-8.294 2.765-8.294 8.294v74.547c0 5.53 2.765 8.294 8.294 8.294h19.354c5.53 0 8.294-2.765 8.294-8.294v-74.547zM408.781 186.778c0-5.53-5.53-8.294-8.294-8.294h-19.354c-5.53 0-8.294 2.765-8.294 8.294v74.547c0 5.53 2.765 8.294 8.294 8.294h19.354c5.53 0 8.294-2.765 8.294-8.294v-74.547zM767.795-28.672c-129.843 0-234.803 107.725-234.803 237.568s104.96 237.568 234.803 237.568 234.803-107.725 234.803-237.568c0-132.608-104.96-237.568-234.803-237.568zM767.795 391.168c-99.43 0-182.272-82.842-182.272-182.272 0-102.195 80.077-182.272 182.272-182.272 99.43 0 182.272 82.842 182.272 182.272s-82.842 182.272-182.272 182.272zM709.837 327.578v0c2.765 0 2.765 0 2.765 0h-2.765zM740.25 145.306v0 0h110.49c13.824 0 24.883 11.059 24.883 24.883v2.765c0 13.824-11.059 24.883-24.883 24.883h-88.371v104.96c0 13.824-11.059 24.883-22.118 24.883-13.824 0-22.118-11.059-22.118-24.883v-132.608c0-11.059 11.059-22.118 22.118-24.883z" />
<glyph unicode="&#xe90b;" glyph-name="svg-icon-12" d="M60.518 913.51h41.677v-945.152h-41.677v945.152zM21.504 46.49h979.046v-39.014h-979.046v39.014zM490.189 85.504h-80.691c-10.445 0-20.787 7.782-20.787 20.787v354.202c0 10.445 10.445 20.787 20.787 20.787h80.691c10.445 0 20.787-7.782 20.787-20.787v-354.099c0-10.445-10.445-20.89-20.787-20.89zM427.622 124.518h41.677v317.747h-41.677v-317.747zM287.027 85.504h-83.251c-10.445 0-20.787 7.782-20.787 20.787v197.939c0 10.445 10.445 20.787 20.787 20.787h80.691c10.445 0 20.787-7.782 20.787-20.787v-197.939c0-10.342-7.782-20.787-18.227-20.787zM224.563 124.518h41.677v158.925h-41.677v-158.925zM693.248 85.504h-80.691c-10.445 0-20.787 7.782-20.787 20.787v197.939c0 10.445 10.445 20.787 20.787 20.787h80.691c10.445 0 20.787-7.782 20.787-20.787v-197.939c0.102-10.342-7.782-20.787-20.787-20.787zM633.344 124.518h41.677v158.925h-41.677v-158.925zM898.97 85.504h-80.691c-10.445 0-20.787 7.782-20.787 20.787v393.216c0 10.445 10.445 20.787 20.787 20.787h80.691c10.445 0 20.787-7.782 20.787-20.787v-393.216c0-10.342-10.342-20.787-20.787-20.787zM836.506 124.518h41.677v356.762h-41.677v-356.762zM182.886 343.245c-5.222 0-10.445 2.56-15.667 7.782-7.782 7.782-5.222 20.787 2.56 28.672l286.413 234.394c7.782 7.782 20.787 5.222 28.672 0l148.378-143.258 234.394 226.509c7.782 7.782 20.787 7.782 28.672 0 7.782-7.782 7.782-20.787 0-28.672l-249.958-242.074c-2.56-2.56-7.782-5.222-15.667-5.222-2.56 0-10.445 2.56-15.667 5.222l-148.275 143.258-270.848-221.389c-2.56-2.56-7.782-5.222-13.005-5.222v0z" />
<glyph unicode="&#xe90c;" glyph-name="svg-icon-13" d="M912.384 552.243c-95.232-129.434-106.598-118.067-26.624-190.362s95.232-106.598 99.021-110.387c0 0 34.304-57.139-34.304-57.139l-129.434-3.789c-26.624-3.789-60.928 19.046-60.928 19.046-49.459 34.304-95.232 118.067-129.434 106.598 0 0-34.304-11.469-34.304-87.552 0-15.258-7.578-26.624-7.578-26.624s-7.578-11.469-26.624-11.469h-57.139c-125.747-11.469-240.026 102.81-240.026 102.81s-125.645 125.645-236.032 373.146c-7.578 15.258 0 22.835 0 22.835s7.578 15.258 30.413 15.258l137.114 3.789c11.469 0 22.835-7.578 22.835-7.578s7.578-7.578 11.469-19.046c22.835-57.139 53.35-106.598 53.35-106.598 53.35-102.81 87.552-118.067 106.598-110.387 0 0 26.624 15.258 19.046 140.902-3.789 45.67-15.258 64.717-15.258 64.717-15.258 19.046-38.093 22.835-45.67 22.835s3.789 19.046 19.046 26.624c22.835 11.469 68.506 15.258 118.067 15.258 41.882 0 53.35-3.789 68.506-3.789 49.459-11.469 30.413-53.35 34.304-159.949 0-34.304-3.789-79.974 19.046-95.232 11.469-7.578 38.093 0 99.021 110.387 0 0 30.413 53.35 53.35 114.278 3.789 11.469 11.469 15.258 11.469 15.258s7.578 3.789 19.046 3.789l144.691 3.789c45.67 0 53.35-22.835 53.35-22.835 7.373-19.046-15.462-68.608-76.39-148.582z" />
<glyph unicode="&#xe90d;" glyph-name="svg-icon-14" d="M773.325 769.126h-91.238c-70.963 0-84.48-33.792-84.48-84.48v-111.514h168.96l-23.654-168.96h-145.306v-442.778h-179.2v442.675h-148.685v172.339h148.685v128.41c0 145.408 91.238 226.509 223.13 226.509 64.205 0 118.272-3.379 131.789-6.758v-155.443z" />
<glyph unicode="&#xe90e;" glyph-name="svg-icon-15" d="M915.558 843.366h-130.15v58.266c0 17.101-13.722 30.822-30.822 30.822s-30.925-13.722-30.925-30.822v-61.645h-181.555v61.645c0 17.101-13.722 30.822-30.822 30.822s-30.822-13.722-30.822-30.822v-61.645h-178.176v61.645c0 17.101-13.722 30.822-30.822 30.822s-27.341-13.722-27.341-30.822v-61.645h-133.632c-41.062 3.379-78.746-34.304-78.746-78.848v-712.499c0-44.544 37.683-78.746 78.746-78.746h801.587c44.544 0 78.746 34.304 78.746 78.746v712.499c3.482 44.544-30.72 82.227-75.264 82.227zM936.038 48.64c0-10.24-10.24-20.582-20.582-20.582h-804.966c-10.24 0-20.582 10.24-20.582 20.582v712.499c0 10.24 10.24 20.582 20.582 20.582h130.15v-61.645c3.379-13.722 13.722-27.443 30.822-27.443s30.822 13.722 30.822 30.822v58.266h181.555v-61.645c0-17.101 13.722-30.822 30.822-30.822s30.822 13.722 30.822 30.822v61.645h181.555v-61.645c0-17.101 13.722-30.822 30.822-30.822 13.722 3.379 27.443 17.101 27.443 30.822v61.645h130.15c10.24 0 20.582-10.24 20.582-20.582v-712.499zM244.122 567.296h119.91v-89.088h-119.91v89.088zM244.122 419.942h119.91v-89.088h-119.91v89.088zM244.122 269.21h119.91v-89.088h-119.91v89.088zM453.12 269.21h119.91v-89.088h-119.91v89.088zM453.12 419.942h119.91v-89.088h-119.91v89.088zM453.12 567.296h119.91v-89.088h-119.91v89.088zM665.498 269.21h119.91v-89.088h-119.91v89.088zM665.498 419.942h119.91v-89.088h-119.91v89.088zM665.498 567.296h119.91v-89.088h-119.91v89.088z" />
<glyph unicode="&#xe90f;" glyph-name="svg-icon-16" d="M906.752 655.872c0-7.578 0-18.944 0-26.419 0-268.39-204.083-578.355-578.355-578.355-113.357 0-223.027 33.997-309.965 90.726 15.155 0 30.208-3.789 49.152-3.789 94.515 0 181.453 30.208 253.235 86.938-90.726 0-162.509 60.518-189.030 139.878 11.366 0 26.419-3.789 37.786-3.789 18.944 0 37.786 3.789 52.941 7.578-94.515 18.944-162.509 102.093-162.509 200.397 0 0 0 0 0 3.789 26.419-15.155 56.73-22.63 90.726-26.419-56.73 37.786-90.726 102.093-90.726 170.086 0 37.786 11.366 71.782 26.419 102.093 98.304-124.723 249.446-204.083 419.635-211.661-3.789 15.155-3.789 30.208-3.789 45.363 0 113.357 90.726 204.083 204.083 204.083 52.941 0 105.882-22.63 143.667-64.307 45.363 7.578 90.726 26.419 128.512 49.152-15.155-45.363-45.363-86.938-90.726-113.357 41.574 3.789 79.36 15.155 117.146 30.208-26.419-37.99-60.416-71.987-98.202-102.195z" />
<glyph unicode="&#xe910;" glyph-name="svg-icon-17" d="M989.286 684.749l-487.322-487.322-467.046 487.322z" />
<glyph unicode="&#xe911;" glyph-name="svg-icon-18" d="M956.211-30.208l-932.25 901.53 40.96 30.72 932.25-891.29zM69.018-20.992l-40.96 40.96 932.25 891.29 40.96-30.72z" />
<glyph unicode="&#xe912;" glyph-name="svg-icon-19" d="M927.415 677.218l-640.875-640.875-172.256 172.256 640.875 640.875 172.256-172.256zM65.638 173.158l175.411-175.411-214.323-38.912zM998.823 761.085l-34.461-34.475-172.305 172.232 34.461 34.475 172.305-172.232z" />
<glyph unicode="&#xe913;" glyph-name="svg-icon-20" d="M989.286 941.466h-758.784c-9.523 0-15.872-7.885-15.872-15.77v-756.122c0-9.421 7.885-15.77 15.872-15.77h757.146c9.523 0 15.872 7.885 15.872 15.77v756.122c1.536 7.885-6.451 15.77-14.234 15.77zM971.776 183.808h-725.504v724.48h725.504v-724.48zM810.189-26.624c0-9.421-7.987-15.77-15.872-15.77h-758.784c-9.523 0-15.872 7.885-15.872 15.77v757.76c0 9.421 7.885 15.77 15.872 15.77 7.885 0 15.872-7.885 15.872-15.77v-740.352h741.376c9.523 0 17.408-7.885 17.408-17.408zM429.978 546.099c0 9.421 7.885 15.77 15.77 15.77h147.354v147.149c0 9.523 7.885 15.77 15.872 15.77 7.885 0 15.872-7.885 15.872-15.77v-147.149h147.251c9.523 0 15.872-7.885 15.872-15.77s-7.885-15.77-15.872-15.77h-147.251v-147.149c0-9.421-7.987-15.77-15.872-15.77s-15.872 7.885-15.872 15.77v147.046h-147.251c-7.885 0-15.872 7.987-15.872 15.872z" />
<glyph unicode="&#xe914;" glyph-name="svg-icon-21" d="M668.774-31.027l-455.066 454.861c-5.837 5.939-9.728 14.643-9.728 22.528s3.891 16.589 9.728 22.528l455.066 454.861c5.837 5.939 14.541 9.83 22.426 9.83 7.782 0 16.589-3.891 22.426-9.83l48.845-48.742c5.939-5.939 9.83-13.722 9.83-22.528 0-7.782-3.891-16.589-9.83-22.528l-383.693-383.59 383.693-383.693c5.939-5.939 9.83-14.643 9.83-22.528s-3.891-16.589-9.83-22.528l-48.845-48.742c-5.837-5.939-14.541-9.83-22.426-9.83-7.782 0.102-16.589 3.994-22.426 9.933z" />
<glyph unicode="&#xe915;" glyph-name="svg-icon-22" d="M848.998 618.701c0-172.15-147.762-311.706-330.035-311.706s-330.035 139.555-330.035 311.706c0 172.15 147.762 311.706 330.035 311.706s330.035-139.555 330.035-311.706zM794.010 343.654c-73.318-64.205-164.966-109.978-275.046-109.978s-201.728 36.659-275.046 109.978c-128.307-82.534-210.842-220.058-210.842-375.808h962.56c9.216 155.75-73.318 293.274-201.626 375.808z" />
<glyph unicode="&#xe916;" glyph-name="svg-icon-23" d="M639.693 199.066c0-34.714-8.704-69.325-26.010-104.038-60.723-104.038-182.17-138.752-294.81-138.752-86.733 0-190.771 26.010-242.79 104.038-17.306 26.010-26.010 52.019-26.010 78.029 0 69.325 43.315 121.344 95.334 156.058 69.325 43.315 156.058 52.019 234.086 60.723-17.306 26.010-34.714 52.019-34.714 86.733 0 17.306 8.704 34.714 8.704 52.019-17.306 0-26.010 0-43.315 0-112.742 0-199.373 78.029-199.373 199.373 0 60.723 26.010 130.048 78.029 164.762 60.621 52.019 147.354 78.029 234.086 78.029h242.79l-86.733-60.723h-78.029c52.019-43.315 86.733-95.334 86.733-173.363 0-147.354-138.752-164.762-138.752-242.79 8.602-69.325 190.771-95.334 190.771-260.096zM552.96 147.046c0 78.029-78.029 121.344-130.048 164.762-8.704 0-17.306 0-26.010 0-95.437 0-234.086-26.010-234.086-147.456 0-112.742 121.344-156.058 216.781-156.058 77.926 8.704 173.363 43.418 173.363 138.752zM457.523 554.496c26.010 26.010 34.714 60.723 34.714 95.334 0 86.733-52.019 234.086-156.058 234.086-34.714 0-69.325-17.306-86.733-43.315-26.010-34.714-26.010-69.325-26.010-95.334 0-86.733 52.019-225.382 156.058-225.382 26.010 0 52.019 8.602 78.029 34.611zM969.114 519.885v-60.723h-130.048v-130.048h-60.723v130.048h-121.344v60.723h121.344v121.344h60.723v-121.344h130.048z" />
<glyph unicode="&#xe917;" glyph-name="svg-icon-24" d="M329.011 923.75l455.066-454.963c5.837-5.939 9.728-14.643 9.728-22.528s-3.891-16.589-9.728-22.528l-455.066-454.758c-5.837-5.939-14.541-9.83-22.426-9.83s-16.589 3.891-22.426 9.83l-48.845 48.742c-5.939 5.939-9.83 13.722-9.83 22.528 0 7.782 3.891 16.589 9.83 22.528l383.693 383.693-383.59 383.59c-5.939 5.939-9.83 14.643-9.83 22.528s3.891 16.589 9.83 22.528l48.845 48.742c5.837 5.939 14.541 9.83 22.426 9.83s16.486-3.994 22.323-9.933z" />
<glyph unicode="&#xe918;" glyph-name="svg-icon-25" d="M372.429 342.323c-5.837 0-11.571 1.126-15.053 5.837v0c-5.734 4.608-8.090 11.571-8.090 19.661 3.482 23.142 41.677 49.869 68.403 60.314 5.837 2.253 11.571 4.608 18.534 8.090 17.408 34.714 33.587 76.493 42.906 104.243-15.053 35.942-17.408 70.656-11.571 89.19 5.734 15.053 16.179 18.534 22.016 19.661 11.571 1.126 18.534-3.482 22.016-8.090s15.053-18.534-2.355-74.138c0 0-3.482-10.445-9.318-26.624 9.318-20.89 23.142-42.906 41.779-61.44 4.608-4.608 8.090-8.090 11.571-11.571 13.926 2.355 26.726 3.482 39.424 3.482v0c30.106 0 47.514-4.608 56.832-13.926 4.608-4.608 6.963-11.571 5.837-18.534-1.229-9.318-6.963-16.282-17.408-20.89-18.534-6.963-50.995-1.126-90.317 30.106-34.816-5.837-70.656-17.408-98.509-27.853-11.571-22.016-23.142-41.677-35.942-53.35-11.776-16.077-28.058-24.166-40.755-24.166zM422.195 408.371c-27.853-12.8-52.122-34.714-53.248-44.032l1.126-1.126c3.482-3.482 17.408 1.126 31.334 16.282 6.963 6.861 13.824 17.306 20.787 28.877zM576.41 451.174c26.624-17.408 46.387-18.534 55.603-15.053 3.482 1.126 4.71 3.482 5.837 3.482 0 2.355 0 3.482-1.126 3.482-2.355 3.482-11.571 8.090-42.906 8.090-1.126 0-1.126 0-2.355 0-4.71 0-9.318 0-15.053 0zM491.827 514.97c-8.090-20.89-18.534-46.387-28.979-70.656 20.787 6.963 45.158 13.926 68.403 18.534-1.229 1.126-1.229 1.126-2.355 2.355-15.155 14.95-27.853 32.358-37.069 49.766zM494.080 629.658h-1.229c-2.355 0-4.71-2.355-5.837-6.963-4.608-11.571-3.482-31.232 3.482-53.248 1.126 2.355 1.126 3.482 1.126 3.482 11.571 35.942 9.216 52.122 5.734 55.603 0.205 0-0.922 1.126-3.277 1.126zM378.266 135.987c6.861 1.229 17.408 2.355 31.232 2.355 15.053 0 25.498-3.482 32.461-9.318 6.963-5.734 10.445-13.926 10.445-24.371s-3.482-19.661-9.216-25.498c-8.090-8.090-20.89-11.571-34.816-11.571-3.379 0-6.963 0-10.445 1.126v-41.574h-19.661v108.851zM397.926 83.866c2.355-1.229 5.837-1.229 10.445-1.229 15.053 0 24.371 6.963 24.371 20.89 0 12.698-8.192 18.534-23.142 18.534-5.837 0-9.318 0-11.571-1.126v-37.069zM470.938 135.987c9.216 1.229 20.89 2.355 32.461 2.355 20.89 0 34.816-4.608 45.158-12.8 10.445-9.318 17.408-22.016 17.408-40.55 0-19.661-6.963-34.714-17.408-44.032-11.571-10.445-28.979-15.053-50.995-15.053-11.571 0-20.787 1.126-27.853 1.126v108.954h1.229zM490.598 41.062c2.355 0 6.963 0 11.571 0 26.624 0 41.677 13.926 41.677 42.906 0 24.269-13.926 38.195-39.424 38.195-6.963 0-11.571 0-13.824-1.126v-79.974zM583.27 137.216h63.693v-16.282h-44.032v-31.334h40.55v-16.179h-40.55v-47.514h-19.661v111.309zM670.208 951.808h-544.563v-1006.899h793.702v756.634l-249.139 250.266zM677.171 903.168l192.307-193.536h-192.307v193.536zM649.421 922.829v-241.050h241.050v-475.034h-735.949v716.083h494.899zM154.522-26.214v213.299h735.846v-213.197h-735.846z" />
</font>
</defs>
</svg>
