<?xml version="1.0" encoding="utf-8"?>
<!-- Generator: Adobe Illustrator 17.1.0, SVG Export Plug-In . SVG Version: 6.00 Build 0)  -->
<!DOCTYPE svg PUBLIC "-//W3C//DTD SVG 1.1//EN" "http://www.w3.org/Graphics/SVG/1.1/DTD/svg11.dtd">
<svg version="1.1" id="Layer_1" xmlns="http://www.w3.org/2000/svg" xmlns:xlink="http://www.w3.org/1999/xlink" x="0px" y="0px"
	 viewBox="0 0 180 54" enable-background="new 0 0 180 54" xml:space="preserve">
<g>
	<path fill="#FFFFFF" d="M152.8,12.1l0.1,6.9h6.1l0.1,4.5l-6.1,0l0,9.5c0,0-0.4,3.7,2.3,4c2.7,0.2,3.4-0.1,3.4-0.1l0.5,4.6
		c0,0-4.2,0.6-6.5,0.5c-2.3-0.2-6.4-1.1-6.6-6.1c0-4.9-0.1-12.4-0.1-12.4h-3.5v-4.5l3.5,0l0-4.9L152.8,12.1z"/>
	<path fill="#FFFFFF" d="M167.6,18.9c2.6-0.5,5.6-1,9.2,0.7c3.6,1.7,3.5,5.7,3.5,5.7l0.1,16.2h-6.6v-1.8c0,0-1.9,2.4-7,2.3
		c-5,0-6.6-3.8-6.4-6.3c0.2-2.4,0.5-5,4.2-7c2.9-1.8,8.9-1.6,8.9-1.7c0.1-2.9-0.9-3.8-4.1-3.8c-3.2,0-6.3,2.1-6.3,2.1l-1.8-4.2
		C161.3,21.3,165,19.4,167.6,18.9z M173.5,31.3c0,0-5-0.4-6,2c-0.9,2.5,0.9,4.2,3.3,3.8c2-0.4,2.7-1.7,2.7-1.7L173.5,31.3z"/>
	<path fill="#FFFFFF" d="M118.8,19.1l0.1,22.5h7l-0.1-15.8c0,0,2.2-2.2,4.8-1.9c2.6,0.3,2.8,1.7,2.8,3.2c0,1.5,0.1,14.5,0.1,14.5h7
		l-0.1-15.7c0,0,0.5-4.6-3.4-6.5c-3.9-1.9-8.6,0.2-8.6,0.2s-2.2,1-2.7,1.5c0,0,0-2,0-2H118.8z"/>
	<path fill="#FFFFFF" d="M45.1,19.1l0.1,22.5h6.9l-0.1-15.8c0,0,2.2-2.2,4.8-1.9c2.6,0.3,2.8,1.7,2.8,3.2c0,1.5,0.1,14.5,0.1,14.5h7
		l-0.1-15.7c0,0,0.5-4.6-3.4-6.5c-3.9-1.9-8.6,0.2-8.6,0.2s-2.2,1-2.7,1.5c0,0,0-2,0-2H45.1z"/>
	<path fill="#FFFFFF" d="M104.6,36.8c5,1,8.3-1.5,8.3-1.5l1.9,4.1c0,0-4.7,3-11.4,2.5c-7.4-0.7-9.2-6.6-9.2-6.6s-2.4-5.6,0.5-10.8
		c2.9-5.3,7.8-5.8,8.7-5.9c1-0.1,6.1-0.7,9.4,2.5c3.6,3.4,2.7,10.6,2.7,10.6l-14.8,0C100.8,31.8,100.5,36,104.6,36.8z M108.5,27.3
		c0.1-0.9,0-4-3.7-4c-3.6,0-4,4-4,4S108.5,27.3,108.5,27.3z"/>
	<path fill="#FFFFFF" d="M73.8,31.3c0,0-3.4-1.3-3-5.8c0.2-4.5,4.5-6.9,10.1-7c5.7,0,10,1.4,10.1,6.7c0.1,5.3-3.7,7.3-7.1,7.8
		c-3.4,0.6-5.5,0.2-6.2,0c0,0-2.5,1.2-1.6,2.7c0.9,1.5,3.9,1.3,3.9,1.3s5-0.2,7.2,0.2c2.2,0.4,5,1.5,5.8,5.4
		c0.8,3.9-1.1,7.5-3.8,9.1C86.6,53.2,84.4,54,80,54c-4.4,0-8-1.1-9.5-3.2c-1.5-2-1.6-4.3-0.9-5.8c0.7-1.5,1.9-2.5,3.2-3.3
		c0,0.1-2.4-1.1-2.9-3c-0.4-1.9-0.5-2.5,0.5-4.4C71.6,32.4,73.8,31.3,73.8,31.3z M77.5,26c0.2,3.3,2.9,3.3,3,3.3
		c0.1,0.1,3.7,0.4,3.9-3.4c0-3.7-3.3-3.5-3.3-3.5S77.8,22.4,77.5,26z M74.8,46.2c0,0.9,1.1,2.9,5.5,3.1c4-0.1,5.7-1.3,6-3.8
		c0.3-2.5-2.2-2.8-2.5-2.8c-0.3,0-6.6,0-6.6,0C75.2,44,74.8,45.3,74.8,46.2z"/>
	<path fill="#FFFFFF" d="M19.4,19.1h7.5l4.4,11.7c0,0,0.8,2.7,0.8,3c0,0,1.6-5.1,2.7-7.6c1-2.5,2.7-7.2,2.7-7.2l6.4,0.1L33.1,46
		c0,0-1.2,3.3-3.7,5.4c-2.5,2.1-5.2,2.2-5.5,2.2c-0.2,0-3.3,0.2-5.9-0.6c0,0,0.9-4.4,0.9-4.4s2.5,0.5,3.7,0.3c1.2-0.2,2.8-1.1,4-3.7
		c1.2-2.6,1.5-3.5,1.5-3.5L19.4,19.1z"/>
	<path fill="#FFFFFF" d="M18,19.3l-1.8,4.6c0,0-3.4-1.3-6.3-0.9c-2.8,0.5-2.3,2.8-1.1,3.3c1.1,0.5,3,0.7,4.6,1.1
		c1.6,0.4,3.3,0.9,4.8,2.7c1.5,1.8,1.6,5.5,0.8,7.1c-0.7,1.6-2.7,4.7-9,4.9c-6.1,0-9.6-1.8-9.6-1.8l1.9-4.6c0,0,3.5,1.5,6.4,1.5
		c3,0,3.7-0.8,3.8-1.9c0.1-1.2-0.6-1.8-2.7-2.2c-2.1-0.4-3.1-0.6-5.3-1.4c-2.1-0.8-3.5-2.6-3.6-5.1c-0.2-2.6,0.7-4.9,2.6-6.3
		c1.9-1.4,4-2.1,7.6-2C14.8,18.3,18,19.3,18,19.3z"/>
	<path fill="#FFFFFF" d="M86.5,18.3c0,0,0.5-0.8,5.9-0.7c5.4,0.1,7.7-4.4,8-5.4c0.3-1,0.6-2,1.1-4.9c0.5-2.8,1.6-6,2.5-7.3
		c0,0-12.2,1.1-16.3,6.6C84.1,11.2,86.5,18.3,86.5,18.3z"/>
</g>
</svg>
